<svg xmlns="http://www.w3.org/2000/svg" viewBox="0 0 44 44" width="44" height="44">
  <defs>
    <linearGradient id="g" x1="0" y1="0" x2="44" y2="44" gradientUnits="userSpaceOnUse">
      <stop stop-color="#f07010"/>
      <stop offset="1" stop-color="#d85800"/>
    </linearGradient>
  </defs>
  <rect width="44" height="44" rx="11" fill="url(#g)"/>
  <path d="M21 12c-1.5-1-3.5-1.5-6-1.5H7a1 1 0 0 0-1 1v19a1 1 0 0 0 1 1h8c2.5 0 4.5.5 6 1.5V12z" fill="#fff"/>
  <path d="M23 12c1.5-1 3.5-1.5 6-1.5h7a1 1 0 0 1 1 1v19a1 1 0 0 1-1 1h-8c-2.5 0-4.5.5-6 1.5V12z" fill="#fff" fill-opacity=".75"/>
  <rect x="21" y="10" width="2" height="24" rx="1" fill="rgba(200,70,0,.8)"/>
</svg>
